<svg xmlns="http://www.w3.org/2000/svg" viewBox="109.8 277.2 676.8 360" version="1.1" style="max-height: 500px" width="676.8" height="360">
<path fill="#C8D934" d="m0 0h900v900h-900z" transform="translate(0)"/>
<path fill="#FEFFFF" d="m0 0 7 2 16 10 18 13 13 10 19 14 26 20 28 21 14 10 2 1-1-12v-73l1-14h20l2 2 1 33v144l-1 1-9-1-10-6-44-33-19-14-13-10-21-16-14-10-12-9-2-1 1 3v96h-23l-1-6v-132l1-41z" transform="translate(169,344)"/>
<path fill="#FEFFFF" d="m0 0h33l3 1 1 119 2 16 4 11 8 10 8 7 12 5 5 1h19l12-5 8-6 7-7 7-14 2-13 1-124 1-1h34l1 1 1 42v62l-1 21-4 16-6 11-9 11-14 10-14 6-15 4-9 1h-28l-16-3-14-5-12-7-8-6v-2l-3-1-9-13-5-13-2-12-1-33v-89z" transform="translate(364,346)"/>
<path fill="#FEFFFF" d="m0 0h28l8 1 1 25 1 97 2 15 4 9 7 10 11 8 9 4 4 1h21l12-5 9-7 7-8 5-10 2-8 1-130 2-2h32l2 2 1 32v87l-3 17-8 16-11 12-10 7-15 7-16 4-8 1h-26l-14-2-18-6-13-7-12-11-7-11-5-12-2-9-1-10z" transform="translate(562,346)"/>
<path fill="#FEFFFF" d="m0 0h9l1 1v11h16l6 4 2 7v18l-3 7-3 3-4 1-23 1-1-1z" transform="translate(591,553)"/>
<path fill="#FEFFFF" d="m0 0h26l6 1 3-1h13l7 3 2 4 1 10v22l-1 1h-10l-1-33-11-1-1 33-1 1h-9l-1-1v-33h-12l-1 34h-10l-1-39z" transform="translate(465,565)"/>
<path fill="#FEFFFF" d="m0 0h19l6 4 2 5v22l-3 6-6 3-14 1-7-3-4-5-1-7v-12l2-11z" transform="translate(546,565)"/>
<path fill="#FEFFFF" d="m0 0h19l6 4 2 7v11l-5 1-19 1 1 7 4 3h7l9-6h3l-1 7-5 4-10 2h-8l-7-3-4-8v-21l3-6z" transform="translate(704,565)"/>
<path fill="#FEFFFF" d="m0 0h10l1 18v33l-1 1h-10z" transform="translate(669,553)"/>
<path fill="#FEFFFF" d="m0 0h8l2 1v40h-10l-1-1v-39z" transform="translate(642,564)"/>
<path fill="#C8D934" d="m0 0 10 1 2 5v18l-2 4-5 2h-6l-1-1v-27z" transform="translate(603,570)"/>
<path fill="#C8D934" d="m0 0h10l3 3v21l-5 5-6-1-2-2-1-6v-17z" transform="translate(550,571)"/>
<path fill="#C8D934" d="m0 0 9 2 1 1v8l-2 1h-11v-10z" transform="translate(710,570)"/>
<path fill="#FEFFFF" d="m0 0h7l1 1v5h-10l-1-4z" transform="translate(644,552)"/>
</svg>