<svg width="454" height="194" viewBox="0 0 454 194" fill="none" xmlns="http://www.w3.org/2000/svg">
<g filter="url(#filter0_d_13_5)">
<mask id="path-1-inside-1_13_5" fill="white">
<path d="M127.952 185.584L42.448 88.048L34.512 77.808L35.792 102.64V182H4.304V0.495987H7.12L91.344 98.8L100.304 110.448L99.024 86V3.56799H130.512V185.584H127.952ZM229.134 185.328C217.443 185.328 206.777 183.323 197.134 179.312C187.577 175.216 179.939 168.304 174.222 158.576C168.505 148.763 165.646 135.323 165.646 118.256V3.56799H198.926V121.84C198.926 131.909 200.547 139.504 203.79 144.624C207.118 149.659 211.086 153.072 215.694 154.864C220.302 156.571 224.611 157.424 228.622 157.424C232.803 157.424 237.113 156.571 241.55 154.864C246.073 153.157 249.87 149.787 252.942 144.752C256.014 139.632 257.55 131.995 257.55 121.84V3.56799H290.83V118.256C290.83 135.323 288.057 148.763 282.51 158.576C276.963 168.304 269.497 175.216 260.11 179.312C250.809 183.323 240.483 185.328 229.134 185.328Z"/>
<path d="M388.134 185.328C376.443 185.328 365.777 183.323 356.134 179.312C346.577 175.216 338.939 168.304 333.222 158.576C327.505 148.763 324.646 135.323 324.646 118.256V3.56799H357.926V121.84C357.926 131.909 359.547 139.504 362.79 144.624C366.118 149.659 370.086 153.072 374.694 154.864C379.302 156.571 383.611 157.424 387.622 157.424C391.803 157.424 396.113 156.571 400.55 154.864C405.073 153.157 408.87 149.787 411.942 144.752C415.014 139.632 416.55 131.995 416.55 121.84V3.56799H449.83V118.256C449.83 135.323 447.057 148.763 441.51 158.576C435.963 168.304 428.497 175.216 419.11 179.312C409.809 183.323 399.483 185.328 388.134 185.328Z"/>
</mask>
<path d="M127.952 185.584L42.448 88.048L34.512 77.808L35.792 102.64V182H4.304V0.495987H7.12L91.344 98.8L100.304 110.448L99.024 86V3.56799H130.512V185.584H127.952ZM229.134 185.328C217.443 185.328 206.777 183.323 197.134 179.312C187.577 175.216 179.939 168.304 174.222 158.576C168.505 148.763 165.646 135.323 165.646 118.256V3.56799H198.926V121.84C198.926 131.909 200.547 139.504 203.79 144.624C207.118 149.659 211.086 153.072 215.694 154.864C220.302 156.571 224.611 157.424 228.622 157.424C232.803 157.424 237.113 156.571 241.55 154.864C246.073 153.157 249.87 149.787 252.942 144.752C256.014 139.632 257.55 131.995 257.55 121.84V3.56799H290.83V118.256C290.83 135.323 288.057 148.763 282.51 158.576C276.963 168.304 269.497 175.216 260.11 179.312C250.809 183.323 240.483 185.328 229.134 185.328Z" fill="#C3D831"/>
<path d="M388.134 185.328C376.443 185.328 365.777 183.323 356.134 179.312C346.577 175.216 338.939 168.304 333.222 158.576C327.505 148.763 324.646 135.323 324.646 118.256V3.56799H357.926V121.84C357.926 131.909 359.547 139.504 362.79 144.624C366.118 149.659 370.086 153.072 374.694 154.864C379.302 156.571 383.611 157.424 387.622 157.424C391.803 157.424 396.113 156.571 400.55 154.864C405.073 153.157 408.87 149.787 411.942 144.752C415.014 139.632 416.55 131.995 416.55 121.84V3.56799H449.83V118.256C449.83 135.323 447.057 148.763 441.51 158.576C435.963 168.304 428.497 175.216 419.11 179.312C409.809 183.323 399.483 185.328 388.134 185.328Z" fill="#EAEAEA"/>
<path d="M127.952 185.584L127.2 186.243L127.499 186.584H127.952V185.584ZM42.448 88.048L41.6576 88.6606L41.6761 88.6845L41.696 88.7072L42.448 88.048ZM34.512 77.808L35.3024 77.1954L33.3492 74.6751L33.5133 77.8595L34.512 77.808ZM35.792 102.64H36.792V102.614L36.7907 102.589L35.792 102.64ZM35.792 182V183H36.792V182H35.792ZM4.304 182H3.304V183H4.304V182ZM4.304 0.495987V-0.504013H3.304V0.495987H4.304ZM7.12 0.495987L7.8794 -0.15464L7.58007 -0.504013H7.12V0.495987ZM91.344 98.8L92.1366 98.1903L92.1206 98.1694L92.1034 98.1494L91.344 98.8ZM100.304 110.448L99.5114 111.058L101.471 113.605L101.303 110.396L100.304 110.448ZM99.024 86H98.024V86.0262L98.0254 86.0523L99.024 86ZM99.024 3.56799V2.56799H98.024V3.56799H99.024ZM130.512 3.56799H131.512V2.56799H130.512V3.56799ZM130.512 185.584V186.584H131.512V185.584H130.512ZM128.704 184.925L43.2 87.3888L41.696 88.7072L127.2 186.243L128.704 184.925ZM43.2384 87.4354L35.3024 77.1954L33.7216 78.4206L41.6576 88.6606L43.2384 87.4354ZM33.5133 77.8595L34.7933 102.691L36.7907 102.589L35.5107 77.7565L33.5133 77.8595ZM34.792 102.64V182H36.792V102.64H34.792ZM35.792 181H4.304V183H35.792V181ZM5.304 182V0.495987H3.304V182H5.304ZM4.304 1.49599H7.12V-0.504013H4.304V1.49599ZM6.36061 1.14661L90.5846 99.4506L92.1034 98.1494L7.8794 -0.15464L6.36061 1.14661ZM90.5514 99.4097L99.5114 111.058L101.097 109.838L92.1366 98.1903L90.5514 99.4097ZM101.303 110.396L100.023 85.9477L98.0254 86.0523L99.3054 110.5L101.303 110.396ZM100.024 86V3.56799H98.024V86H100.024ZM99.024 4.56799H130.512V2.56799H99.024V4.56799ZM129.512 3.56799V185.584H131.512V3.56799H129.512ZM130.512 184.584H127.952V186.584H130.512V184.584ZM197.134 179.312L196.74 180.231L196.75 180.235L197.134 179.312ZM174.222 158.576L173.358 159.079L173.36 159.083L174.222 158.576ZM165.646 3.56799V2.56799H164.646V3.56799H165.646ZM198.926 3.56799H199.926V2.56799H198.926V3.56799ZM203.79 144.624L202.945 145.159L202.95 145.167L202.956 145.175L203.79 144.624ZM215.694 154.864L215.332 155.796L215.339 155.799L215.347 155.802L215.694 154.864ZM241.55 154.864L241.197 153.928L241.191 153.931L241.55 154.864ZM252.942 144.752L253.796 145.273L253.799 145.266L252.942 144.752ZM257.55 3.56799V2.56799H256.55V3.56799H257.55ZM290.83 3.56799H291.83V2.56799H290.83V3.56799ZM282.51 158.576L283.379 159.071L283.381 159.068L282.51 158.576ZM260.11 179.312L260.506 180.23L260.51 180.229L260.11 179.312ZM229.134 184.328C217.559 184.328 207.025 182.343 197.518 178.389L196.75 180.235C206.528 184.302 217.327 186.328 229.134 186.328V184.328ZM197.528 178.393C188.184 174.388 180.703 167.63 175.084 158.069L173.36 159.083C179.176 168.978 186.97 176.044 196.74 180.231L197.528 178.393ZM175.086 158.073C169.492 148.47 166.646 135.228 166.646 118.256H164.646C164.646 135.417 167.518 149.055 173.358 159.079L175.086 158.073ZM166.646 118.256V3.56799H164.646V118.256H166.646ZM165.646 4.56799H198.926V2.56799H165.646V4.56799ZM197.926 3.56799V121.84H199.926V3.56799H197.926ZM197.926 121.84C197.926 131.987 199.554 139.805 202.945 145.159L204.635 144.089C201.54 139.203 199.926 131.832 199.926 121.84H197.926ZM202.956 145.175C206.372 150.344 210.492 153.914 215.332 155.796L216.056 153.932C211.68 152.23 207.864 148.973 204.624 144.073L202.956 145.175ZM215.347 155.802C220.042 157.541 224.469 158.424 228.622 158.424V156.424C224.753 156.424 220.562 155.601 216.041 153.926L215.347 155.802ZM228.622 158.424C232.942 158.424 237.373 157.542 241.909 155.797L241.191 153.931C236.853 155.599 232.665 156.424 228.622 156.424V158.424ZM241.903 155.8C246.677 153.998 250.634 150.455 253.796 145.273L252.088 144.231C249.106 149.119 245.469 152.316 241.197 153.928L241.903 155.8ZM253.799 145.266C257.009 139.917 258.55 132.064 258.55 121.84H256.55C256.55 131.925 255.019 139.347 252.085 144.238L253.799 145.266ZM258.55 121.84V3.56799H256.55V121.84H258.55ZM257.55 4.56799H290.83V2.56799H257.55V4.56799ZM289.83 3.56799V118.256H291.83V3.56799H289.83ZM289.83 118.256C289.83 135.232 287.069 148.479 281.639 158.084L283.381 159.068C289.045 149.047 291.83 135.413 291.83 118.256H289.83ZM281.641 158.081C276.191 167.64 268.88 174.394 259.71 178.395L260.51 180.229C270.113 176.038 277.736 168.968 283.379 159.071L281.641 158.081ZM259.714 178.394C250.552 182.344 240.364 184.328 229.134 184.328V186.328C240.603 186.328 251.065 184.301 260.506 180.23L259.714 178.394ZM356.134 179.312L355.74 180.231L355.75 180.235L356.134 179.312ZM333.222 158.576L332.358 159.079L332.36 159.083L333.222 158.576ZM324.646 3.56799V2.56799H323.646V3.56799H324.646ZM357.926 3.56799H358.926V2.56799H357.926V3.56799ZM362.79 144.624L361.945 145.159L361.95 145.167L361.956 145.175L362.79 144.624ZM374.694 154.864L374.332 155.796L374.339 155.799L374.347 155.802L374.694 154.864ZM400.55 154.864L400.197 153.928L400.191 153.931L400.55 154.864ZM411.942 144.752L412.796 145.273L412.799 145.266L411.942 144.752ZM416.55 3.56799V2.56799H415.55V3.56799H416.55ZM449.83 3.56799H450.83V2.56799H449.83V3.56799ZM441.51 158.576L442.379 159.071L442.381 159.068L441.51 158.576ZM419.11 179.312L419.506 180.23L419.51 180.229L419.11 179.312ZM388.134 184.328C376.559 184.328 366.025 182.343 356.518 178.389L355.75 180.235C365.528 184.302 376.327 186.328 388.134 186.328V184.328ZM356.528 178.393C347.184 174.388 339.703 167.63 334.084 158.069L332.36 159.083C338.176 168.978 345.97 176.044 355.74 180.231L356.528 178.393ZM334.086 158.073C328.492 148.47 325.646 135.228 325.646 118.256H323.646C323.646 135.417 326.518 149.055 332.358 159.079L334.086 158.073ZM325.646 118.256V3.56799H323.646V118.256H325.646ZM324.646 4.56799H357.926V2.56799H324.646V4.56799ZM356.926 3.56799V121.84H358.926V3.56799H356.926ZM356.926 121.84C356.926 131.987 358.554 139.805 361.945 145.159L363.635 144.089C360.54 139.203 358.926 131.832 358.926 121.84H356.926ZM361.956 145.175C365.372 150.344 369.492 153.914 374.332 155.796L375.056 153.932C370.68 152.23 366.864 148.973 363.624 144.073L361.956 145.175ZM374.347 155.802C379.042 157.541 383.469 158.424 387.622 158.424V156.424C383.753 156.424 379.562 155.601 375.041 153.926L374.347 155.802ZM387.622 158.424C391.942 158.424 396.373 157.542 400.909 155.797L400.191 153.931C395.853 155.599 391.665 156.424 387.622 156.424V158.424ZM400.903 155.8C405.677 153.998 409.634 150.455 412.796 145.273L411.088 144.231C408.106 149.119 404.469 152.316 400.197 153.928L400.903 155.8ZM412.799 145.266C416.009 139.917 417.55 132.064 417.55 121.84H415.55C415.55 131.925 414.019 139.347 411.085 144.238L412.799 145.266ZM417.55 121.84V3.56799H415.55V121.84H417.55ZM416.55 4.56799H449.83V2.56799H416.55V4.56799ZM448.83 3.56799V118.256H450.83V3.56799H448.83ZM448.83 118.256C448.83 135.232 446.069 148.479 440.639 158.084L442.381 159.068C448.045 149.047 450.83 135.413 450.83 118.256H448.83ZM440.641 158.081C435.191 167.64 427.88 174.394 418.71 178.395L419.51 180.229C429.113 176.038 436.736 168.968 442.379 159.071L440.641 158.081ZM418.714 178.394C409.552 182.344 399.364 184.328 388.134 184.328V186.328C399.603 186.328 410.065 184.301 419.506 180.23L418.714 178.394Z" fill="#C3D831" mask="url(#path-1-inside-1_13_5)"/>
</g>
<defs>
<filter id="filter0_d_13_5" x="0.303955" y="0.495987" width="453.526" height="193.088" filterUnits="userSpaceOnUse" color-interpolation-filters="sRGB">
<feFlood flood-opacity="0" result="BackgroundImageFix"/>
<feColorMatrix in="SourceAlpha" type="matrix" values="0 0 0 0 0 0 0 0 0 0 0 0 0 0 0 0 0 0 127 0" result="hardAlpha"/>
<feOffset dy="4"/>
<feGaussianBlur stdDeviation="2"/>
<feComposite in2="hardAlpha" operator="out"/>
<feColorMatrix type="matrix" values="0 0 0 0 0 0 0 0 0 0 0 0 0 0 0 0 0 0 0.25 0"/>
<feBlend mode="normal" in2="BackgroundImageFix" result="effect1_dropShadow_13_5"/>
<feBlend mode="normal" in="SourceGraphic" in2="effect1_dropShadow_13_5" result="shape"/>
</filter>
</defs>
</svg>
